<svg xmlns="http://www.w3.org/2000/svg" xml:space="preserve" width="16" height="16"><path fill="#fc7f7f" d="m6.403 1.84-3.69 6.39a4 4 0 0 1 2.349-.068L8.135 2.84a1 1 0 0 0-1.732-1zM4 15h10a1 1 0 0 0 0-2H6.826A3 3 0 1 0 4 15zm0-4a1 1 0 0 1 0 2 1 1 0 0 1 0-2z"/><path d="M10.175 12.446a.649.649 0 0 1-.348-.373c-.025-.095-.019-.165.04-.43.14-.632.178-1.087.129-1.54-.113-1.037-.586-1.828-1.436-2.396-.337-.225-.69-.39-1.185-.555-.363-.12-.425-.15-.515-.247a.516.516 0 0 1 .13-.82c.173-.097.328-.082.797.075 2.103.706 3.296 2.27 3.296 4.32 0 .578-.141 1.457-.277 1.723a.544.544 0 0 1-.63.243z" style="fill:#fc7f7f;fill-opacity:1;stroke-width:.0279351"/></svg>
